<?xml version="1.0" encoding="UTF-8"?>
<!DOCTYPE svg PUBLIC "-//W3C//DTD SVG 1.1//EN" "http://www.w3.org/Graphics/SVG/1.1/DTD/svg11.dtd">
<!-- Creator: CorelDRAW Home & Student X8 -->
<svg xmlns="http://www.w3.org/2000/svg" xml:space="preserve" width="0.636866in" height="0.630417in" version="1.1" style="shape-rendering:geometricPrecision; text-rendering:geometricPrecision; image-rendering:optimizeQuality; fill-rule:evenodd; clip-rule:evenodd"
viewBox="0 0 45 45"
 xmlns:xlink="http://www.w3.org/1999/xlink">
 <defs>
  <style type="text/css">
   <![CDATA[
    .str0 {stroke:black;stroke-width:0.490294}
    .fil0 {fill:none}
   ]]>
  </style>
 </defs>
 <g id="Layer_x0020_1">
  <metadata id="CorelCorpID_0Corel-Layer"/>
  <path class="fil0 str0" d="M36 24c-1,7 -7,12 -14,12 -7,0 -13,-5 -13,-12m0 -4c1,-7 7,-12 13,-12 7,0 13,5 14,12"/>
  <path class="fil0 str0" d="M26 6c7,1 13,8 13,16 0,8 -6,15 -14,17m-5 0c-8,-2 -14,-8 -14,-17 0,-8 6,-15 14,-16"/>
  <path class="fil0 str0" d="M42 25c-1,9 -10,17 -20,17 -9,0 -18,-8 -19,-17m0 -5c1,-10 10,-17 19,-17 10,0 18,7 20,16"/>
  <path class="fil0 str0" d="M26 0c11,2 19,11 19,22 0,11 -9,21 -19,22m-7 0c-11,-1 -19,-11 -19,-22 0,-11 8,-20 19,-22"/>
 </g>
</svg>
